<svg class="main-svg" xmlns="http://www.w3.org/2000/svg" xmlns:xlink="http://www.w3.org/1999/xlink" width="1000" height="600" style="" viewBox="0 0 1000 600"><rect x="0" y="0" width="1000" height="600" style="fill: rgb(255, 255, 255); fill-opacity: 1;"/><defs id="defs-faf005"><g class="clips"><clipPath id="clipfaf005xyplot" class="plotclip"><rect width="678" height="420"/></clipPath><clipPath class="axesclip" id="clipfaf005x"><rect x="80" y="0" width="678" height="600"/></clipPath><clipPath class="axesclip" id="clipfaf005y"><rect x="0" y="100" width="1000" height="420"/></clipPath><clipPath class="axesclip" id="clipfaf005xy"><rect x="80" y="100" width="678" height="420"/></clipPath></g><g class="gradients"><linearGradient x1="0" y1="1" x2="0" y2="0" gradientUnits="objectBoundingBox" id="gfaf005-cbcoloraxis"><stop offset="0%" stop-color="rgb(13, 8, 135)" stop-opacity="1"/><stop offset="11.111111%" stop-color="rgb(70, 3, 159)" stop-opacity="1"/><stop offset="22.222222%" stop-color="rgb(114, 1, 168)" stop-opacity="1"/><stop offset="33.333333%" stop-color="rgb(156, 23, 158)" stop-opacity="1"/><stop offset="44.444444%" stop-color="rgb(189, 55, 134)" stop-opacity="1"/><stop offset="55.555556%" stop-color="rgb(216, 87, 107)" stop-opacity="1"/><stop offset="66.666667%" stop-color="rgb(237, 121, 83)" stop-opacity="1"/><stop offset="77.777778%" stop-color="rgb(251, 159, 58)" stop-opacity="1"/><stop offset="88.888889%" stop-color="rgb(253, 202, 38)" stop-opacity="1"/><stop offset="100%" stop-color="rgb(240, 249, 33)" stop-opacity="1"/></linearGradient></g><g class="patterns"/></defs><g class="bglayer"><rect class="bg" x="80" y="100" width="678" height="420" style="fill: rgb(255, 255, 255); fill-opacity: 1; stroke-width: 0;"/></g><g class="layer-below"><g class="imagelayer"/><g class="shapelayer"/></g><g class="cartesianlayer"><g class="subplot xy"><g class="layer-subplot"><g class="shapelayer"/><g class="imagelayer"/></g><g class="minor-gridlayer"><g class="x"/><g class="y"/></g><g class="gridlayer"><g class="x"><path class="xgrid crisp" transform="translate(161.32999999999998,0)" d="M0,100v420" style="stroke: rgb(238, 238, 238); stroke-opacity: 1; stroke-width: 1px;"/><path class="xgrid crisp" transform="translate(273.21000000000004,0)" d="M0,100v420" style="stroke: rgb(238, 238, 238); stroke-opacity: 1; stroke-width: 1px;"/><path class="xgrid crisp" transform="translate(385.09,0)" d="M0,100v420" style="stroke: rgb(238, 238, 238); stroke-opacity: 1; stroke-width: 1px;"/><path class="xgrid crisp" transform="translate(496.96,0)" d="M0,100v420" style="stroke: rgb(238, 238, 238); stroke-opacity: 1; stroke-width: 1px;"/><path class="xgrid crisp" transform="translate(608.84,0)" d="M0,100v420" style="stroke: rgb(238, 238, 238); stroke-opacity: 1; stroke-width: 1px;"/><path class="xgrid crisp" transform="translate(720.72,0)" d="M0,100v420" style="stroke: rgb(238, 238, 238); stroke-opacity: 1; stroke-width: 1px;"/></g><g class="y"><path class="ygrid crisp" transform="translate(0,477.31)" d="M80,0h678" style="stroke: rgb(238, 238, 238); stroke-opacity: 1; stroke-width: 1px;"/><path class="ygrid crisp" transform="translate(0,428.27)" d="M80,0h678" style="stroke: rgb(238, 238, 238); stroke-opacity: 1; stroke-width: 1px;"/><path class="ygrid crisp" transform="translate(0,379.23)" d="M80,0h678" style="stroke: rgb(238, 238, 238); stroke-opacity: 1; stroke-width: 1px;"/><path class="ygrid crisp" transform="translate(0,330.19)" d="M80,0h678" style="stroke: rgb(238, 238, 238); stroke-opacity: 1; stroke-width: 1px;"/><path class="ygrid crisp" transform="translate(0,281.15)" d="M80,0h678" style="stroke: rgb(238, 238, 238); stroke-opacity: 1; stroke-width: 1px;"/><path class="ygrid crisp" transform="translate(0,232.11)" d="M80,0h678" style="stroke: rgb(238, 238, 238); stroke-opacity: 1; stroke-width: 1px;"/><path class="ygrid crisp" transform="translate(0,183.07)" d="M80,0h678" style="stroke: rgb(238, 238, 238); stroke-opacity: 1; stroke-width: 1px;"/><path class="ygrid crisp" transform="translate(0,134.02)" d="M80,0h678" style="stroke: rgb(238, 238, 238); stroke-opacity: 1; stroke-width: 1px;"/></g></g><g class="zerolinelayer"/><g class="layer-between"><g class="shapelayer"/><g class="imagelayer"/></g><path class="xlines-below"/><path class="ylines-below"/><g class="overlines-below"/><g class="xaxislayer-below"/><g class="yaxislayer-below"/><g class="overaxes-below"/><g class="overplot"><g class="xy" transform="translate(80,100)" clip-path="url(#clipfaf005xyplot)"><g class="scatterlayer mlayer"><g class="trace scatter trace33829d" style="stroke-miterlimit: 2; opacity: 1;"><g class="fills"/><g class="errorbars"/><g class="lines"/><g class="points"><path class="point" transform="translate(81.33,351.57)" d="M42.43,0A42.43,42.43 0 1,1 0,-42.43A42.43,42.43 0 0,1 42.43,0Z" style="opacity: 0.7; stroke-width: 1px; fill: rgb(240, 249, 33); fill-opacity: 1; stroke: rgb(255, 255, 255); stroke-opacity: 1;"/><path class="point" transform="translate(193.21,201.25)" d="M41.99,0A41.99,41.99 0 1,1 0,-41.99A41.99,41.99 0 0,1 41.99,0Z" style="opacity: 0.7; stroke-width: 1px; fill: rgb(242, 240, 34); fill-opacity: 1; stroke: rgb(255, 255, 255); stroke-opacity: 1;"/><path class="point" transform="translate(305.09,45.79)" d="M22.18,0A22.18,22.18 0 1,1 0,-22.18A22.18,22.18 0 0,1 22.18,0Z" style="opacity: 0.7; stroke-width: 1px; fill: rgb(133, 11, 164); fill-opacity: 1; stroke: rgb(255, 255, 255); stroke-opacity: 1;"/><path class="point" transform="translate(416.96,359.41)" d="M16.1,0A16.1,16.1 0 1,1 0,-16.1A16.1,16.1 0 0,1 16.1,0Z" style="opacity: 0.7; stroke-width: 1px; fill: rgb(82, 2, 162); fill-opacity: 1; stroke: rgb(255, 255, 255); stroke-opacity: 1;"/><path class="point" transform="translate(528.84,380.06)" d="M3.95,0A3.95,3.95 0 1,1 0,-3.95A3.95,3.95 0 0,1 3.95,0Z" style="opacity: 0.7; stroke-width: 1px; fill: rgb(17, 8, 137); fill-opacity: 1; stroke: rgb(255, 255, 255); stroke-opacity: 1;"/><path class="point" transform="translate(640.72,355.24)" d="M3.03,0A3.03,3.03 0 1,1 0,-3.03A3.03,3.03 0 0,1 3.03,0Z" style="opacity: 0.7; stroke-width: 1px; fill: rgb(15, 8, 136); fill-opacity: 1; stroke: rgb(255, 255, 255); stroke-opacity: 1;"/></g><g class="text"/></g></g></g></g><path class="xlines-above crisp" d="M79,520.5H758" style="fill: none; stroke-width: 1px; stroke: rgb(0, 0, 0); stroke-opacity: 1;"/><path class="ylines-above crisp" d="M79.5,100V520" style="fill: none; stroke-width: 1px; stroke: rgb(0, 0, 0); stroke-opacity: 1;"/><g class="overlines-above"/><g class="xaxislayer-above"><g class="xtick"><text text-anchor="end" x="0" y="537.8" transform="translate(161.32999999999998,0) rotate(-45,0,530.8)" style="font-family: Arial; font-size: 14px; fill: rgb(51, 51, 51); fill-opacity: 1; white-space: pre; opacity: 1;">Data / Data Mining Analyst</text></g><g class="xtick"><text text-anchor="end" x="0" y="537.8" transform="translate(273.21000000000004,0) rotate(-45,0,530.8)" style="font-family: Arial; font-size: 14px; fill: rgb(51, 51, 51); fill-opacity: 1; white-space: pre; opacity: 1;">Business Intelligence Analyst</text></g><g class="xtick"><text text-anchor="end" x="0" y="537.8" transform="translate(385.09,0) rotate(-45,0,530.8)" style="font-family: Arial; font-size: 14px; fill: rgb(51, 51, 51); fill-opacity: 1; white-space: pre; opacity: 1;">Computer Systems Engineer / Architect</text></g><g class="xtick"><text text-anchor="end" x="0" y="537.8" transform="translate(496.96,0) rotate(-45,0,530.8)" style="font-family: Arial; font-size: 14px; fill: rgb(51, 51, 51); fill-opacity: 1; white-space: pre; opacity: 1;">Business / Management Analyst</text></g><g class="xtick"><text text-anchor="end" x="0" y="537.8" transform="translate(608.84,0) rotate(-45,0,530.8)" style="font-family: Arial; font-size: 14px; fill: rgb(51, 51, 51); fill-opacity: 1; white-space: pre; opacity: 1;">Clinical Analyst / Clinical Documentation and Improvement Specialist</text></g><g class="xtick"><text text-anchor="end" x="0" y="537.8" transform="translate(720.72,0) rotate(-45,0,530.8)" style="font-family: Arial; font-size: 14px; fill: rgb(51, 51, 51); fill-opacity: 1; white-space: pre; opacity: 1;">Market Research Analyst</text></g></g><g class="yaxislayer-above"><g class="ytick"><text text-anchor="end" x="76.2" y="4.8999999999999995" transform="translate(0,477.31)" style="font-family: Arial; font-size: 14px; fill: rgb(51, 51, 51); fill-opacity: 1; white-space: pre; opacity: 1;">90k</text></g><g class="ytick"><text text-anchor="end" x="76.2" y="4.8999999999999995" style="font-family: Arial; font-size: 14px; fill: rgb(51, 51, 51); fill-opacity: 1; white-space: pre; opacity: 1;" transform="translate(0,428.27)">100k</text></g><g class="ytick"><text text-anchor="end" x="76.2" y="4.8999999999999995" style="font-family: Arial; font-size: 14px; fill: rgb(51, 51, 51); fill-opacity: 1; white-space: pre; opacity: 1;" transform="translate(0,379.23)">110k</text></g><g class="ytick"><text text-anchor="end" x="76.2" y="4.8999999999999995" style="font-family: Arial; font-size: 14px; fill: rgb(51, 51, 51); fill-opacity: 1; white-space: pre; opacity: 1;" transform="translate(0,330.19)">120k</text></g><g class="ytick"><text text-anchor="end" x="76.2" y="4.8999999999999995" style="font-family: Arial; font-size: 14px; fill: rgb(51, 51, 51); fill-opacity: 1; white-space: pre; opacity: 1;" transform="translate(0,281.15)">130k</text></g><g class="ytick"><text text-anchor="end" x="76.2" y="4.8999999999999995" style="font-family: Arial; font-size: 14px; fill: rgb(51, 51, 51); fill-opacity: 1; white-space: pre; opacity: 1;" transform="translate(0,232.11)">140k</text></g><g class="ytick"><text text-anchor="end" x="76.2" y="4.8999999999999995" style="font-family: Arial; font-size: 14px; fill: rgb(51, 51, 51); fill-opacity: 1; white-space: pre; opacity: 1;" transform="translate(0,183.07)">150k</text></g><g class="ytick"><text text-anchor="end" x="76.2" y="4.8999999999999995" style="font-family: Arial; font-size: 14px; fill: rgb(51, 51, 51); fill-opacity: 1; white-space: pre; opacity: 1;" transform="translate(0,134.02)">160k</text></g></g><g class="overaxes-above"/></g></g><g class="polarlayer"/><g class="smithlayer"/><g class="ternarylayer"/><g class="geolayer"/><g class="funnelarealayer"/><g class="pielayer"/><g class="iciclelayer"/><g class="treemaplayer"/><g class="sunburstlayer"/><g class="glimages"/><defs id="topdefs-faf005"><g class="clips"/></defs><g class="layer-above"><g class="imagelayer"/><g class="shapelayer"/></g><g class="infolayer"><g class="cbcoloraxis colorbar" transform="translate(80,100)"><rect class="cbbg" x="691.5" y="0" width="216.5625" height="421" style="fill: rgb(0, 0, 0); fill-opacity: 0; stroke: rgb(68, 68, 68); stroke-opacity: 1; stroke-width: 0;"/><g class="cbfills" transform="translate(0,35)"><rect class="cbfill gradient_filled" style="fill: url('#gfaf005-cbcoloraxis');" x="702" y="0" width="30" height="375"/></g><g class="cblines" transform="translate(0,35)"/><g class="cbaxis crisp" transform="translate(0,-100)"><g class="ycbcoloraxistick"><text text-anchor="start" x="735.8" y="4.8999999999999995" transform="translate(0,448.08)" style="font-family: Arial; font-size: 14px; fill: rgb(51, 51, 51); fill-opacity: 1; white-space: pre; opacity: 1;">5k</text></g><g class="ycbcoloraxistick"><text text-anchor="start" x="735.8" y="4.8999999999999995" style="font-family: Arial; font-size: 14px; fill: rgb(51, 51, 51); fill-opacity: 1; white-space: pre; opacity: 1;" transform="translate(0,385.6)">10k</text></g><g class="ycbcoloraxistick"><text text-anchor="start" x="735.8" y="4.8999999999999995" style="font-family: Arial; font-size: 14px; fill: rgb(51, 51, 51); fill-opacity: 1; white-space: pre; opacity: 1;" transform="translate(0,323.13)">15k</text></g><g class="ycbcoloraxistick"><text text-anchor="start" x="735.8" y="4.8999999999999995" style="font-family: Arial; font-size: 14px; fill: rgb(51, 51, 51); fill-opacity: 1; white-space: pre; opacity: 1;" transform="translate(0,260.65999999999997)">20k</text></g><g class="ycbcoloraxistick"><text text-anchor="start" x="735.8" y="4.8999999999999995" style="font-family: Arial; font-size: 14px; fill: rgb(51, 51, 51); fill-opacity: 1; white-space: pre; opacity: 1;" transform="translate(0,198.19)">25k</text></g><g class="ycbcoloraxistick"><text text-anchor="start" x="735.8" y="4.8999999999999995" style="font-family: Arial; font-size: 14px; fill: rgb(51, 51, 51); fill-opacity: 1; white-space: pre; opacity: 1;" transform="translate(0,135.71)">30k</text></g></g><g class="cbtitleunshift" transform="translate(-80,-100)"><g class="cbtitle" transform="translate(-0.5,-0.5)"><text class="ycbcoloraxistitle" x="781.5600000000001" y="125.75" text-anchor="start" style="opacity: 1; font-family: Arial; font-size: 17px; fill: rgb(51, 51, 51); fill-opacity: 1; white-space: pre;">Number of Job Postings</text></g></g><rect class="cboutline" x="702" y="35" width="30" height="375" style="stroke: rgb(68, 68, 68); stroke-opacity: 1; fill: none; stroke-width: 1;"/></g><g class="g-gtitle"><text class="gtitle" x="500" y="50" text-anchor="middle" dy="0em" style="opacity: 1; font-family: HelveticaNeue-CondensedBold, Helvetica, sans-serif; font-size: 25px; fill: rgb(51, 51, 51); fill-opacity: 1; white-space: pre;">Salary Analysis by LOT Occupation Type (Bubble Chart)</text></g><g class="g-xtitle" transform="translate(0,15)"><text class="xtitle" x="419" y="581" text-anchor="middle" style="opacity: 1; font-family: Arial; font-size: 17px; fill: rgb(51, 51, 51); fill-opacity: 1; white-space: pre;">LOT Occupation</text></g><g class="g-ytitle" transform="translate(-0.8125,0)"><text class="ytitle" transform="rotate(-90,36,310)" x="36" y="310" text-anchor="middle" style="opacity: 1; font-family: Arial; font-size: 17px; fill: rgb(51, 51, 51); fill-opacity: 1; white-space: pre;">Median Salary</text></g></g></svg>